<svg width="64" height="64" viewBox="0 0 64 64" fill="none" xmlns="http://www.w3.org/2000/svg">
  <g stroke="#9CA3AF" stroke-width="3" stroke-linecap="round" opacity="0.8">
    <path d="M12 20C16 18 20 22 24 20C28 18 32 22 36 20C40 18 44 22 48 20C52 18 56 22 60 20"/>
    <path d="M8 28C12 26 16 30 20 28C24 26 28 30 32 28C36 26 40 30 44 28C48 26 52 30 56 28"/>
    <path d="M12 36C16 34 20 38 24 36C28 34 32 38 36 36C40 34 44 38 48 36C52 34 56 38 60 36"/>
    <path d="M6 44C10 42 14 46 18 44C22 42 26 46 30 44C34 42 38 46 42 44C46 42 50 46 54 44C58 42 62 46 66 44"/>
  </g>
</svg> 