<svg width="64" height="64" viewBox="0 0 64 64" fill="none" xmlns="http://www.w3.org/2000/svg">
  <path d="M48 36C52.4183 36 56 32.4183 56 28C56 23.5817 52.4183 20 48 20C46.8954 20 45.8519 20.2374 44.9123 20.6641C43.0234 15.0242 37.8403 11 31.5 11C23.4919 11 17 17.4919 17 25.5C17 26.3765 17.0898 27.2318 17.2616 28.0577C14.0135 29.3327 12 32.4059 12 36C12 40.9706 16.0294 45 21 45H48C48 41.6863 48 38.3137 48 36Z" fill="#6B7280" stroke="#4B5563" stroke-width="1"/>
  <path d="M52 24C54.2091 24 56 22.2091 56 20C56 17.7909 54.2091 16 52 16C51.4477 16 50.9239 16.1193 50.4472 16.3333C49.4188 13.2968 46.5403 11 43 11C38.5817 11 35 14.5817 35 19C35 19.5523 35.0596 20.0928 35.1736 20.6146C33.3725 21.4386 32 23.215 32 25.5C32 28.5376 34.4624 31 37.5 31H52C52 28.6863 52 26.3137 52 24Z" fill="#4B5563" stroke="#374151" stroke-width="1"/>
</svg> 