<svg width="64" height="64" viewBox="0 0 64 64" fill="none" xmlns="http://www.w3.org/2000/svg">
  <path d="M46 30C49.866 30 53 26.866 53 23C53 19.134 49.866 16 46 16C45.0454 16 44.1479 16.2099 43.3492 16.5813C41.6687 11.8193 37.1522 8.5 31.75 8.5C24.5975 8.5 18.8 14.2975 18.8 21.45C18.8 22.2212 18.8719 22.9759 19.0098 23.7062C16.2108 24.766 14.5 27.491 14.5 30.65C14.5 34.7773 17.8727 38.15 21.9999 38.15H46C46 35.4333 46 32.7167 46 30Z" fill="#6B7280" stroke="#6B7280" stroke-width="1"/>
  <g stroke="#E5E7EB" stroke-width="1.5" stroke-linecap="round">
    <path d="M24 44V48M22 46H26M23.2 44.8L24.8 47.2M24.8 44.8L23.2 47.2"/>
    <path d="M32 42V46M30 44H34M31.2 42.8L32.8 45.2M32.8 42.8L31.2 45.2"/>
    <path d="M40 46V50M38 48H42M39.2 46.8L40.8 49.2M40.8 46.8L39.2 49.2"/>
    <path d="M28 50V54M26 52H30M27.2 50.8L28.8 53.2M28.8 50.8L27.2 53.2"/>
  </g>
</svg> 