<svg width="64" height="64" viewBox="0 0 64 64" fill="none" xmlns="http://www.w3.org/2000/svg">
  <path d="M46 30C49.866 30 53 26.866 53 23C53 19.134 49.866 16 46 16C45.0454 16 44.1479 16.2099 43.3492 16.5813C41.6687 11.8193 37.1522 8.5 31.75 8.5C24.5975 8.5 18.8 14.2975 18.8 21.45C18.8 22.2212 18.8719 22.9759 19.0098 23.7062C16.2108 24.766 14.5 27.491 14.5 30.65C14.5 34.7773 17.8727 38.15 21.9999 38.15H46C46 35.4333 46 32.7167 46 30Z" fill="#374151" stroke="#374151" stroke-width="1"/>
  <path d="M32 36L28 46H33L31 56L35 46H30L32 36Z" fill="#FCD34D" stroke="#F59E0B" stroke-width="1"/>
</svg> 